<svg width="88" height="22" viewBox="0 0 88 22" fill="none" xmlns="http://www.w3.org/2000/svg">
<path d="M6.69674 21.5191V21.1284C5.14214 21.1284 5.14214 19.5355 5.14214 17.1612V4.8388C5.14214 2.46448 5.14214 0.871584 6.69674 0.871584V0.480873H0V0.871584C1.5546 0.871584 1.5546 2.46448 1.5546 4.8388V17.1612C1.5546 19.5355 1.5546 21.1284 0 21.1284V21.5191H6.69674Z" fill="#2C2C2C"/>
<path d="M8.14553 0.480873V0.871584C9.70013 0.871584 9.70013 2.46448 9.70013 4.8388V17.1612C9.70013 19.5355 9.70013 21.1284 8.14553 21.1284V21.5191H14.8423V21.1284C13.2877 21.1284 13.2877 19.5355 13.2877 17.1612V7.99453L24.2596 21.5191H28.3254V21.1284C26.7708 21.1284 26.7708 19.5355 26.7708 17.1612V4.8388C26.7708 2.46448 26.7708 0.871584 28.3254 0.871584V0.480873H21.6287V0.871584C23.0338 0.871584 23.1833 2.19399 23.1833 4.2377V14.6366L11.8228 0.480873H8.14553Z" fill="#2C2C2C"/>
<path d="M30.1089 0.480873V5.40984H30.4976C30.4976 3.84699 32.0821 3.84699 34.4439 3.84699H36.8953V17.1612C36.8953 19.5355 36.8953 21.1284 35.3706 21.1284V21.5191H42.0375V21.1284C40.4829 21.1284 40.4829 19.5355 40.4829 17.1612V3.84699H42.9942C45.3559 3.84699 46.9404 3.84699 46.9404 5.40984H47.3291V0.480873H30.1089Z" fill="#2C2C2C"/>
<path d="M49.1359 0.480873V0.871584C50.6905 0.871584 50.6905 2.46448 50.6905 4.8388V17.1612C50.6905 19.5355 50.6905 21.1284 49.1359 21.1284V21.5191H64.2335L64.6819 16.5902H64.2634C64.2634 18.153 62.2603 18.153 59.8986 18.153H54.2781V3.84699H59.8986C62.2603 3.84699 63.8448 3.84699 63.8448 5.40984H64.2335V0.480873H49.1359ZM59.8687 14.3661C60.1078 12.7131 61.2738 11.1503 62.8284 11.1503V10.7596C61.2738 10.7596 60.1078 9.22678 59.8687 7.54372H59.48C59.2707 9.22678 58.0749 10.7596 56.5502 10.7596V11.1503C58.0749 11.1503 59.2707 12.7131 59.48 14.3661H59.8687Z" fill="#2C2C2C"/>
<path d="M88 11C88 3.66666 82.6187 0 77.2374 0C71.8262 0 66.4449 3.66666 66.4449 11C66.4449 18.3333 71.8262 22 77.2374 22C82.6187 22 88 18.3333 88 11ZM84.5022 11C84.5022 15.929 80.8548 18.3634 77.2374 18.3634C73.5901 18.3634 69.9726 15.929 69.9726 11C69.9726 6.07104 73.5901 3.63661 77.2374 3.63661C80.8548 3.63661 84.5022 6.07104 84.5022 11ZM77.5065 14.306C77.7456 12.6229 78.9116 11.0902 80.4662 11.0902V10.6694C78.9116 10.6694 77.7456 9.13661 77.5065 7.45355H77.1178C76.9085 9.13661 75.7127 10.6694 74.188 10.6694V11.0902C75.7127 11.0902 76.9085 12.6229 77.1178 14.306H77.5065Z" fill="#2C2C2C"/>
</svg>